<svg width="192" height="101" viewBox="0 0 192 101" fill="none" xmlns="http://www.w3.org/2000/svg">
<path d="M165.625 36.3838C167.646 38.044 168.848 40.5159 169.098 43.0839C169.149 43.7841 169.148 44.4848 169.15 45.1865C169.151 45.3084 169.151 45.3084 169.151 45.4327C169.153 45.8628 169.154 46.2929 169.155 46.723C169.156 47.0739 169.157 47.4248 169.16 47.7757C169.19 51.4835 168.868 54.4661 166.164 57.243C164.452 58.9262 162.218 59.7806 159.82 59.8552C157.313 59.7823 155.268 58.949 153.375 57.3437C153.439 56.8394 153.681 56.6492 154.062 56.3283C155.161 55.4559 155.161 55.4559 156 54.3672C156.082 54.3672 156.165 54.3672 156.25 54.3672C156.332 54.2035 156.415 54.0398 156.5 53.8711C156.931 54.0349 157.335 54.223 157.742 54.4369C158.213 54.6707 158.594 54.8303 159.125 54.8633C159.217 54.8695 159.309 54.8757 159.404 54.8822C160.665 54.9307 161.796 54.5849 162.75 53.7471C163.218 53.1818 163.567 52.5488 163.875 51.8867C163.787 51.9272 163.699 51.9676 163.608 52.0093C161.135 53.0953 158.519 53.2144 155.969 52.2898C153.235 51.0947 151.656 48.9437 150.5 46.3057C150.459 46.2238 150.417 46.1419 150.375 46.0576C150.038 44.0961 150.152 42.119 150.75 40.2285C150.835 39.9395 150.917 39.6499 151 39.3603C151.082 39.3603 151.165 39.3603 151.25 39.3603C151.282 39.2716 151.314 39.1829 151.347 39.0915C152.164 37.2201 154.013 35.7373 155.852 34.911C159.212 33.6433 162.78 34.26 165.625 36.3838ZM156.539 40.1355C155.6 41.243 155.027 42.385 155.082 43.8659C155.229 44.9871 155.587 45.9766 156.375 46.8018C156.439 46.8703 156.503 46.9389 156.569 47.0096C157.41 47.814 158.417 48.0693 159.562 48.104C160.855 48.0624 161.813 47.7336 162.749 46.8347C163.683 45.7894 164.073 44.6385 164.031 43.2482C163.872 41.7415 163.194 40.653 162.035 39.6903C160.368 38.4845 158.045 38.8849 156.539 40.1355Z" fill="#388fe5"/>
<path d="M49.9009 29.4007C50.4504 29.8506 50.9828 30.3165 51.5 30.8027C51.5941 30.8902 51.6882 30.9776 51.7851 31.0677C52 31.2988 52 31.2988 52 31.5469C52.0825 31.5469 52.165 31.5469 52.25 31.5469C52.4384 31.7911 52.4384 31.7911 52.6406 32.105C52.708 32.2086 52.7753 32.3122 52.8447 32.4189C52.8959 32.4995 52.9472 32.5801 53 32.6631C52.0988 33.4132 51.1182 34.0142 50.1183 34.6226C49.7641 34.8393 49.4132 35.061 49.0625 35.2831C48.9529 35.3525 48.8433 35.4219 48.7304 35.4933C48.6544 35.5416 48.5783 35.5899 48.5 35.6397C48.4134 35.5248 48.4134 35.5248 48.3252 35.4076C46.8666 33.5286 45.0739 32.1967 42.6626 31.8531C40.4561 31.6551 38.5853 32.196 36.75 33.4072C36.6248 33.5311 36.4998 33.6551 36.375 33.7793C36.2925 33.7793 36.21 33.7793 36.125 33.7793C36.0754 33.8894 36.0754 33.8894 36.0249 34.0017C35.8698 34.2848 35.7057 34.4599 35.4765 34.6862C34.0874 36.2343 33.641 38.3903 33.7065 40.4063C33.8261 42.4129 34.6387 44.2043 36 45.6856C36.0789 45.7722 36.1579 45.8589 36.2392 45.9481C37.7369 47.4227 39.9256 48.0231 41.9828 48.0476C43.9071 48.0071 45.7172 47.2356 47.125 45.9336C47.3549 45.6916 47.5743 45.4455 47.7871 45.1885C48.0493 44.8841 48.3396 44.6044 48.625 44.3213C50.7287 45.7333 50.7287 45.7333 52.875 47.1738C52.5953 47.8675 52.5953 47.8675 52.2187 48.2125C51.8322 48.5768 51.4911 48.9585 51.1577 49.3709C51.1056 49.4235 51.0536 49.4761 51 49.5303C50.9175 49.5303 50.835 49.5303 50.75 49.5303C50.75 49.6121 50.75 49.694 50.75 49.7783C48.7731 51.5312 46.1679 52.89 43.5 53.127C43.343 53.1433 43.1861 53.1596 43.0244 53.1764C39.6847 53.4772 36.288 52.7318 33.625 50.6465C33.5152 50.564 33.4055 50.4815 33.2925 50.3965C30.6835 48.3722 28.8272 45.4014 28.3018 42.1405C28.2079 41.3724 28.202 40.6062 28.2031 39.8332C28.2032 39.7487 28.2032 39.6641 28.2033 39.577C28.2082 38.2416 28.3091 37.0284 28.75 35.7637C28.7768 35.6853 28.8036 35.6069 28.8312 35.5261C29.4326 33.8005 30.3258 32.1132 31.625 30.8027C31.7075 30.8027 31.79 30.8027 31.875 30.8027C31.9162 30.68 31.9575 30.5572 32 30.4307C32.0825 30.4307 32.165 30.4307 32.25 30.4307C32.25 30.3488 32.25 30.267 32.25 30.1826C32.5108 29.9544 32.7718 29.7416 33.0469 29.5315C33.127 29.4699 33.2072 29.4083 33.2897 29.3449C33.9167 28.8694 34.5504 28.439 35.25 28.0742C35.3684 28.0122 35.4868 27.9502 35.6089 27.8863C40.2415 25.6139 45.8466 26.263 49.9009 29.4007Z" fill="#388fe5"/>
<path d="M120.125 34.2754C120.125 40.3736 120.125 46.4719 120.125 52.7549C118.434 52.7549 116.742 52.7549 115 52.7549C114.959 52.5093 114.917 52.2638 114.875 52.0108C114.733 52.0849 114.591 52.1591 114.445 52.2355C112.566 53.1661 110.182 53.3309 108.156 52.7762C106.818 52.2974 105.569 51.7156 104.5 50.7705C104.416 50.7048 104.332 50.6391 104.246 50.5714C102.639 49.2809 101.618 47.3097 101.25 45.3135C101.234 45.226 101.217 45.1386 101.201 45.0485C100.842 42.7077 101.41 40.1707 102.742 38.2136C103.967 36.5907 105.433 35.3586 107.375 34.6475C107.532 34.5882 107.532 34.5882 107.693 34.5278C110.081 33.7857 112.772 34.2684 115 35.2676C115 34.9402 115 34.6127 115 34.2754C115.67 34.2546 116.339 34.2347 117.009 34.2156C117.237 34.209 117.464 34.2021 117.692 34.195C118.02 34.1848 118.347 34.1755 118.674 34.1664C118.776 34.163 118.878 34.1597 118.983 34.1562C119.4 34.1453 119.726 34.1436 120.125 34.2754ZM107.125 40.7246C106.258 42.0097 106.142 43.3125 106.375 44.8174C106.656 45.9606 107.371 46.848 108.328 47.5304C109.452 48.1554 110.718 48.2584 111.966 48.0333C112.886 47.7738 113.623 47.2668 114.25 46.5537C114.335 46.4642 114.42 46.3747 114.508 46.2824C115.329 45.0992 115.404 43.8584 115.25 42.4609C115.017 41.3866 114.324 40.4197 113.453 39.7479C111.363 38.4366 108.72 38.9309 107.125 40.7246Z" fill="#388fe5"/>
<path d="M97.5742 36.3872C99.6966 38.1842 100.573 40.3875 100.875 43.0811C100.875 43.8996 100.875 44.7182 100.875 45.5615C96.5025 45.5615 92.13 45.5615 87.625 45.5615C88.0881 46.6337 88.5623 47.3507 89.6504 47.8322C90.7317 48.245 92.1189 48.2027 93.1953 47.7862C93.773 47.5118 94.2303 47.1678 94.6846 46.7218C94.875 46.5537 94.875 46.5537 95.125 46.5537C95.2969 46.7543 95.2969 46.7543 95.5 47.0343C96.2876 48.0632 97.1654 48.9091 98.2705 49.5957C98.3841 49.6861 98.3841 49.6861 98.5 49.7783C98.5 49.9011 98.5 50.0239 98.5 50.1504C98.4175 50.1504 98.335 50.1504 98.25 50.1504C98.2087 50.2564 98.2087 50.2564 98.1665 50.3645C97.3853 51.6875 95.3208 52.4222 93.9297 52.8014C91.2831 53.45 88.571 52.9086 86.2612 51.5282C84.2465 50.1635 82.7801 48.0556 82.3047 45.6647C81.9671 42.7307 82.4251 39.9919 84.2969 37.6318C87.7891 33.6887 93.3884 33.141 97.5742 36.3872ZM88.0703 40.3303C87.8338 40.6576 87.6369 40.9643 87.5 41.3447C87.5412 41.4675 87.5825 41.5903 87.625 41.7168C90.2237 41.7168 92.8225 41.7168 95.5 41.7168C95.5412 41.6349 95.5825 41.5531 95.625 41.4688C95.2788 40.4383 94.5581 39.6733 93.6406 39.1176C91.6812 38.1634 89.4301 38.6607 88.0703 40.3303Z" fill="#388fe5"/>
<path d="M145.856 36.6372C147.613 38.222 148.552 40.4321 148.826 42.7294C148.855 43.0739 148.855 43.0739 149 43.3291C148.922 45.4358 148.248 47.4574 147 49.1582C146.927 49.2623 146.854 49.3664 146.779 49.4736C145.396 51.333 143.185 52.5776 140.902 52.9661C138.285 53.3143 135.808 52.7651 133.687 51.1993C132.459 50.2447 131.507 49.1012 130.896 47.6651C130.721 47.3733 130.564 47.2955 130.25 47.1738C130.255 47.0357 130.26 46.8976 130.266 46.7553C130.267 46.3654 130.221 46.0318 130.125 45.6546C129.811 44.2057 129.877 42.6053 130.293 41.1868C130.391 40.8421 130.391 40.8421 130.374 40.4504C130.375 39.9737 130.562 39.8438 130.875 39.4844C130.989 39.2946 131.101 39.1032 131.211 38.9108C132.487 36.7708 134.434 35.1735 136.875 34.5235C140.136 33.8091 143.261 34.56 145.856 36.6372ZM136.25 40.2285C136.25 40.3104 136.25 40.3922 136.25 40.4766C136.168 40.4766 136.085 40.4766 136 40.4766C135.809 40.7296 135.809 40.7296 135.625 41.0502C135.561 41.1567 135.496 41.2631 135.43 41.3728C134.852 42.4779 134.843 43.7585 135.077 44.9666C135.448 46.1075 136.203 47.1013 137.267 47.6835C138.453 48.246 139.617 48.2444 140.875 47.918C142.061 47.4969 142.915 46.7654 143.492 45.6546C143.991 44.6005 144.051 43.3484 143.79 42.2139C143.358 41.0729 142.557 40.0374 141.465 39.4568C139.693 38.6805 137.688 38.8909 136.25 40.2285ZM130.375 46.5537C130.5 46.9258 130.5 46.9258 130.5 46.9258L130.375 46.5537ZM130.5 46.9258C130.625 47.1738 130.625 47.1738 130.625 47.1738L130.5 46.9258Z" fill="#388fe5"/>
<path d="M54.125 34.5234C54.759 34.5204 55.393 34.5181 56.027 34.5166C56.2427 34.516 56.4584 34.5151 56.6741 34.5141C56.9841 34.5126 57.294 34.5119 57.604 34.5113C57.7005 34.5107 57.797 34.51 57.8964 34.5094C58.2979 34.5093 58.6163 34.5205 59 34.6475C59.1178 35.9173 59.1339 37.1807 59.1284 38.4554C59.1279 38.5787 59.1279 38.5787 59.1274 38.7046C59.1241 39.4806 59.1193 40.2567 59.113 41.0327C59.1096 41.4612 59.1075 41.8897 59.1062 42.3182C59.105 42.5559 59.1025 42.7935 59.0999 43.0312C59.0953 44.6307 59.2021 46.1845 60.3359 47.4141C61.3943 48.0679 62.4079 48.1409 63.625 47.918C64.46 47.6766 65.0156 47.1321 65.5 46.4297C65.929 45.5832 66.0187 44.7487 66.0122 43.8154C66.012 43.7163 66.0118 43.6172 66.0117 43.5151C66.0112 43.3008 66.0104 43.0865 66.0094 42.8722C66.0078 42.5335 66.007 42.1947 66.0064 41.856C66.005 41.1378 66.0026 40.4196 66 39.7014C65.9971 38.8675 65.9945 38.0336 65.993 37.1997C65.9922 36.8652 65.9906 36.5307 65.9891 36.1962C65.9886 35.9925 65.9882 35.7889 65.9878 35.5853C65.9872 35.4916 65.9865 35.3979 65.9858 35.3014C65.9858 35.0834 65.9922 34.8653 66 34.6475C66.2304 34.4189 66.5537 34.5075 66.8602 34.5062C66.963 34.5065 67.0659 34.5067 67.1719 34.507C67.2768 34.5068 67.3818 34.5067 67.4899 34.5066C67.7123 34.5065 67.9346 34.5067 68.157 34.5073C68.4985 34.5079 68.8401 34.5073 69.1816 34.5065C69.3971 34.5066 69.6126 34.5067 69.8281 34.507C69.931 34.5067 70.0339 34.5065 70.1398 34.5062C70.8606 34.5092 70.8606 34.5092 71 34.6475C71.017 34.9501 71.0259 35.2494 71.0296 35.5522C71.0313 35.647 71.0329 35.7419 71.0346 35.8395C71.0399 36.1555 71.0442 36.4714 71.0483 36.7873C71.0516 37.0076 71.0548 37.2279 71.058 37.4482C71.0647 37.9121 71.0708 38.376 71.0766 38.8399C71.084 39.4291 71.0933 40.0182 71.1031 40.6073C71.1104 41.0637 71.1164 41.5201 71.1221 41.9765C71.125 42.1933 71.1283 42.4101 71.1321 42.6269C71.1836 45.6324 70.8456 48.3342 68.6636 50.616C66.8375 52.3787 64.606 53.0885 62.0996 53.0613C59.6599 52.9783 57.6704 52.0315 56 50.2744C54.1955 48.1653 54.0659 45.5866 54.0884 42.9531C54.0891 42.7085 54.0896 42.4639 54.09 42.2192C54.0914 41.5823 54.0951 40.9454 54.0993 40.3084C54.1031 39.6557 54.1048 39.003 54.1067 38.3502C54.1107 37.0746 54.1171 35.799 54.125 34.5234Z" fill="#388fe5"/>
<path d="M128 26.0898C128 34.8893 128 43.6888 128 52.7549C126.267 52.7549 124.535 52.7549 122.75 52.7549C122.75 44.4056 122.75 36.0564 122.75 27.4541C127.425 26.0898 127.425 26.0898 128 26.0898Z" fill="#388fe5"/>
<path d="M82.375 34.2754C82.508 34.8109 82.5162 35.3305 82.5122 35.8785C82.512 35.9712 82.5119 36.0639 82.5117 36.1594C82.511 36.4538 82.5094 36.7482 82.5078 37.0426C82.5072 37.243 82.5066 37.4433 82.5061 37.6436C82.5047 38.1332 82.5026 38.6227 82.5 39.1123C82.3624 39.151 82.2248 39.1897 82.083 39.2296C80.8231 39.5891 79.826 39.9959 79.1484 41.1587C78.6045 42.2185 78.483 43.2287 78.4878 44.4063C78.488 44.4957 78.4882 44.5852 78.4883 44.6774C78.4888 44.8695 78.4896 45.0617 78.4906 45.2539C78.4922 45.5577 78.493 45.8616 78.4936 46.1654C78.495 46.809 78.4975 47.4526 78.5 48.0962C78.5029 48.8452 78.5055 49.5942 78.507 50.3432C78.5078 50.6432 78.5094 50.943 78.511 51.2429C78.5114 51.4253 78.5118 51.6077 78.5122 51.79C78.5129 51.9498 78.5135 52.1096 78.5142 52.2742C78.5 52.6308 78.5 52.6308 78.375 52.7549C77.9963 52.7659 77.6204 52.7691 77.2417 52.767C77.1281 52.7668 77.0145 52.7666 76.8975 52.7664C76.5332 52.7657 76.169 52.7642 75.8047 52.7626C75.5583 52.762 75.312 52.7614 75.0657 52.7609C74.4604 52.7595 73.8552 52.7574 73.25 52.7549C73.0975 52.3009 73.1101 51.8861 73.1143 51.4137C73.1147 51.3151 73.1151 51.2164 73.1156 51.1147C73.1171 50.7874 73.1197 50.4602 73.1226 50.1329C73.1234 50.0207 73.1243 49.9084 73.1252 49.7927C73.1299 49.1971 73.1354 48.6015 73.1415 48.0059C73.1476 47.395 73.1509 46.7842 73.1536 46.1733C73.1561 45.7002 73.1609 45.2272 73.1662 44.7541C73.1683 44.5292 73.1697 44.3044 73.1702 44.0795C73.1785 41.1517 73.9688 38.8715 76.0337 36.7064C77.6887 35.1107 80.0642 34.2037 82.375 34.2754Z" fill="#388fe5"/>
<path d="M161.375 34.3994C160.941 34.6655 160.619 34.669 160.115 34.6445C159.898 34.635 159.898 34.635 159.676 34.6252C159.525 34.6172 159.374 34.6092 159.219 34.6009C158.99 34.5904 158.99 34.5904 158.756 34.5796C158.379 34.5621 158.002 34.5433 157.625 34.5234C157.625 34.4825 157.625 34.4416 157.625 34.3994C158.865 34.1986 160.136 34.2 161.375 34.3994Z" fill="#388fe5"/>
<path d="M124.5 52.8789C124.875 53.0029 124.875 53.0029 124.875 53.0029L124.5 52.8789Z" fill="#2692EE"/>
<path d="M136.25 52.7549C136.625 52.8789 136.625 52.8789 136.625 52.8789L136.25 52.7549Z" fill="#2893EF"/>
<path d="M136.25 95.4189C136.5 95.543 136.5 95.543 136.5 95.543L136.25 95.4189Z" fill="#444446"/>
<path d="M136.25 92.4424C136.5 92.5664 136.5 92.5664 136.5 92.5664L136.25 92.4424Z" fill="#3C3D40"/>
<path d="M139.875 53.127C140.125 53.251 140.125 53.251 140.125 53.251L139.875 53.127Z" fill="#2493EE"/>
<path d="M139.375 53.127C139.625 53.251 139.625 53.251 139.625 53.251L139.375 53.127Z" fill="#2493ED"/>
<path d="M138.375 53.127C138.625 53.251 138.625 53.251 138.625 53.251L138.375 53.127Z" fill="#2392EF"/>
<path d="M93 53.0029C93.25 53.127 93.25 53.127 93.25 53.127L93 53.0029Z" fill="#2592F1"/>
<path d="M28.125 42.4609C28.375 42.585 28.375 42.585 28.375 42.585L28.125 42.4609Z" fill="#388fe5"/>
<path d="M160.375 39.2363C160.625 39.3604 160.625 39.3604 160.625 39.3604L160.375 39.2363Z" fill="#388fe5"/>
<path d="M91.75 38.8643C92 38.9883 92 38.9883 92 38.9883L91.75 38.8643Z" fill="#388fe5"/>
<path d="M90.75 38.8643C91 38.9883 91 38.9883 91 38.9883L90.75 38.8643Z" fill="#388fe5"/>
<path d="M136.125 34.5234C136.375 34.6475 136.375 34.6475 136.375 34.6475L136.125 34.5234Z" fill="#388fe5"/>
<path d="M107.125 34.5234C107.375 34.6475 107.375 34.6475 107.375 34.6475L107.125 34.5234Z" fill="#388fe5"/>
</svg>
